<svg width="20" height="20" viewBox="0 0 20 20" fill="none" xmlns="http://www.w3.org/2000/svg">
<g clip-path="url(#clip0_22_79)">
<path d="M10.0002 18.0002C8.41793 18.0002 6.87121 17.531 5.55562 16.6519C4.24003 15.7729 3.21465 14.5235 2.60915 13.0616C2.00364 11.5998 1.84522 9.99131 2.1539 8.43946C2.46258 6.88761 3.22451 5.46215 4.34333 4.34333C5.46215 3.22451 6.88761 2.46258 8.43946 2.1539C9.99131 1.84522 11.5998 2.00364 13.0616 2.60915C14.5235 3.21465 15.7729 4.24003 16.6519 5.55562C17.531 6.87121 18.0002 8.41793 18.0002 10.0002C18.0002 12.1219 17.1573 14.1567 15.657 15.657C14.1567 17.1573 12.1219 18.0002 10.0002 18.0002ZM10.0002 0.000182205C8.68474 -0.00778236 7.3808 0.245438 6.16394 0.745164C4.94709 1.24489 3.84153 1.98118 2.91136 2.91136C1.98118 3.84153 1.24489 4.94709 0.745164 6.16394C0.245438 7.3808 -0.00778236 8.68474 0.000182205 10.0002C-0.00778236 11.3156 0.245438 12.6196 0.745164 13.8364C1.24489 15.0533 1.98118 16.1588 2.91136 17.089C3.84153 18.0192 4.94709 18.7555 6.16394 19.2552C7.3808 19.7549 8.68474 20.0081 10.0002 20.0002C11.3156 20.0081 12.6196 19.7549 13.8364 19.2552C15.0533 18.7555 16.1588 18.0192 17.089 17.089C18.0192 16.1588 18.7555 15.0533 19.2552 13.8364C19.7549 12.6196 20.0081 11.3156 20.0002 10.0002C20.0081 8.68474 19.7549 7.3808 19.2552 6.16394C18.7555 4.94709 18.0192 3.84153 17.089 2.91136C16.1588 1.98118 15.0533 1.24489 13.8364 0.745164C12.6196 0.245438 11.3156 -0.00778236 10.0002 0.000182205Z" fill="#735FBC"/>
<path d="M13.49 11.6699C12.49 11.6699 12.06 11.0999 12.06 9.95995C12.06 8.81995 12.49 8.24995 13.49 8.24995C14.06 8.24995 14.35 8.53995 14.63 9.10995L15.92 8.39995C15.6512 7.92791 15.251 7.54423 14.7681 7.29565C14.2851 7.04707 13.7403 6.94433 13.2 6.99995C12.8034 6.9893 12.4089 7.06014 12.0408 7.20806C11.6727 7.35598 11.3389 7.57785 11.06 7.85995C10.7675 8.13101 10.5387 8.46349 10.39 8.8335C10.2413 9.20351 10.1764 9.60187 10.2 9.99995C10.1744 10.4206 10.2378 10.842 10.386 11.2366C10.5342 11.6312 10.7638 11.9901 11.06 12.2899C11.3389 12.572 11.6727 12.7939 12.0408 12.9418C12.4089 13.0898 12.8034 13.1606 13.2 13.1499C13.7476 13.1386 14.2834 12.9887 14.7573 12.7141C15.2312 12.4396 15.6278 12.0494 15.91 11.5799L14.63 10.9999C14.5107 11.2009 14.3448 11.3703 14.1465 11.4938C13.9481 11.6174 13.723 11.6915 13.49 11.7099V11.6699ZM7.48998 11.6699C6.48998 11.6699 6.05998 11.0999 6.05998 9.95995C6.05998 8.81995 6.48998 8.24995 7.48998 8.24995C8.05998 8.24995 8.34998 8.53995 8.62998 9.10995L9.91998 8.39995C9.65125 7.92791 9.25103 7.54423 8.76807 7.29565C8.28512 7.04707 7.74029 6.94433 7.19998 6.99995C6.80342 6.9893 6.4089 7.06014 6.04081 7.20806C5.67272 7.35598 5.33889 7.57785 5.05998 7.85995C4.76749 8.13101 4.53868 8.46349 4.38999 8.8335C4.24129 9.20351 4.1764 9.60187 4.19998 9.99995C4.17442 10.4206 4.2378 10.842 4.38598 11.2366C4.53415 11.6312 4.76381 11.9901 5.05998 12.2899C5.33889 12.572 5.67272 12.7939 6.04081 12.9418C6.4089 13.0898 6.80342 13.1606 7.19998 13.1499C7.74757 13.1386 8.28336 12.9887 8.75728 12.7141C9.2312 12.4396 9.62779 12.0494 9.90998 11.5799L8.62998 10.9999C8.51066 11.2009 8.34484 11.3703 8.14646 11.4938C7.94809 11.6174 7.72295 11.6915 7.48998 11.7099V11.6699Z" fill="#735FBC"/>
</g>
<defs>
<clipPath id="clip0_22_79">
<rect width="20" height="20" fill="white"/>
</clipPath>
</defs>
</svg>
