<svg width="30" height="30" viewBox="0 0 30 30" fill="none" xmlns="http://www.w3.org/2000/svg">
<path d="M6.875 20C13.125 23.125 16.875 23.125 23.125 20" stroke="#735FBC" stroke-width="1.875" stroke-linecap="round" stroke-linejoin="round"/>
<path d="M19.375 21.875L20.625 24.375C20.625 24.375 25.8387 22.715 27.5 20C27.5 18.75 28.1625 9.81625 23.75 6.875C21.875 5.625 18.75 5 18.75 5L17.5 7.5H15" stroke="#735FBC" stroke-width="1.875" stroke-linecap="round" stroke-linejoin="round"/>
<path d="M10.66 21.875L9.40996 24.375C9.40996 24.375 4.19622 22.715 2.53497 20C2.53497 18.75 1.87247 9.81625 6.28497 6.875C8.15997 5.625 11.285 5 11.285 5L12.535 7.5H15.035" stroke="#735FBC" stroke-width="1.875" stroke-linecap="round" stroke-linejoin="round"/>
<path d="M10.625 17.5C9.59 17.5 8.75 16.3813 8.75 15C8.75 13.6187 9.59 12.5 10.625 12.5C11.66 12.5 12.5 13.6187 12.5 15C12.5 16.3813 11.66 17.5 10.625 17.5ZM19.375 17.5C18.34 17.5 17.5 16.3813 17.5 15C17.5 13.6187 18.34 12.5 19.375 12.5C20.41 12.5 21.25 13.6187 21.25 15C21.25 16.3813 20.41 17.5 19.375 17.5Z" stroke="#735FBC" stroke-width="1.875" stroke-linecap="round" stroke-linejoin="round"/>
</svg>
