<svg width="67" height="61" viewBox="0 0 67 61" fill="none" xmlns="http://www.w3.org/2000/svg">
<path d="M11.308 36.36C9.7 36.36 8.212 36.048 6.844 35.424C5.5 34.8 4.396 33.9 3.532 32.724L6.196 29.52C6.892 30.48 7.648 31.2 8.464 31.68C9.304 32.16 10.216 32.4 11.2 32.4C13.816 32.4 15.124 30.852 15.124 27.756V14.724H6.16V10.8H19.804V27.504C19.804 30.48 19.072 32.7 17.608 34.164C16.168 35.628 14.068 36.36 11.308 36.36ZM34.9724 36.252C32.8364 36.252 30.9644 35.832 29.3564 34.992C27.7724 34.128 26.5364 32.952 25.6484 31.464C24.7844 29.976 24.3524 28.284 24.3524 26.388C24.3524 24.468 24.7724 22.776 25.6124 21.312C26.4764 19.824 27.6524 18.66 29.1404 17.82C30.6524 16.98 32.3684 16.56 34.2884 16.56C36.1604 16.56 37.8284 16.968 39.2924 17.784C40.7564 18.6 41.9084 19.752 42.7484 21.24C43.5884 22.728 44.0084 24.48 44.0084 26.496C44.0084 26.688 43.9964 26.904 43.9724 27.144C43.9724 27.384 43.9604 27.612 43.9364 27.828H27.9164V24.84H41.5604L39.7964 25.776C39.8204 24.672 39.5924 23.7 39.1124 22.86C38.6324 22.02 37.9724 21.36 37.1324 20.88C36.3164 20.4 35.3684 20.16 34.2884 20.16C33.1844 20.16 32.2124 20.4 31.3724 20.88C30.5564 21.36 29.9084 22.032 29.4284 22.896C28.9724 23.736 28.7444 24.732 28.7444 25.884V26.604C28.7444 27.756 29.0084 28.776 29.5364 29.664C30.0644 30.552 30.8084 31.236 31.7684 31.716C32.7284 32.196 33.8324 32.436 35.0804 32.436C36.1604 32.436 37.1324 32.268 37.9964 31.932C38.8604 31.596 39.6284 31.068 40.3004 30.348L42.7124 33.12C41.8484 34.128 40.7564 34.908 39.4364 35.46C38.1404 35.988 36.6524 36.252 34.9724 36.252Z" fill="#33007B"/>
<path d="M54.064 35L45.82 15.776H50.5L57.592 32.732H55.288L62.632 15.776H66.952L58.708 35H54.064Z" fill="#33007B"/>
<path d="M56.8898 33C56.8898 33 55.4754 38.0642 53.8898 41C43.6825 59.8995 23.0076 41.5 13.3899 41.5C8.88999 41.5 4.38986 43 3.38979 47C1.95795 52.727 4.51078 56.9655 10.3898 57.5C15.8898 58 20.3898 56 18.8898 51" stroke="#33007B" stroke-width="5"/>
</svg>
