<svg width="31" height="31" viewBox="0 0 31 31" fill="none" xmlns="http://www.w3.org/2000/svg">
<path d="M9.04167 11.6249L13.8854 15.4999C14.3436 15.8668 14.9131 16.0666 15.5 16.0666C16.0869 16.0666 16.6564 15.8668 17.1146 15.4999L21.9583 11.6249M27.125 21.9583V9.04159C27.125 8.35644 26.8528 7.69936 26.3684 7.21489C25.8839 6.73042 25.2268 6.45825 24.5417 6.45825H6.45833C5.77319 6.45825 5.11611 6.73042 4.63164 7.21489C4.14717 7.69936 3.875 8.35644 3.875 9.04159V21.9583C3.875 22.6434 4.14717 23.3005 4.63164 23.7849C5.11611 24.2694 5.77319 24.5416 6.45833 24.5416H24.5417C25.2268 24.5416 25.8839 24.2694 26.3684 23.7849C26.8528 23.3005 27.125 22.6434 27.125 21.9583Z" stroke="#735FBC" stroke-width="2.58333" stroke-linecap="round" stroke-linejoin="round"/>
</svg>
