<svg width="54" height="54" viewBox="0 0 54 54" fill="none" xmlns="http://www.w3.org/2000/svg">
<path d="M25.8075 36.6255C26.1239 36.9415 26.5528 37.119 27 37.119C27.4472 37.119 27.8761 36.9415 28.1925 36.6255L33.255 31.5653C33.5531 31.2454 33.7153 30.8223 33.7076 30.3851C33.6999 29.9479 33.5228 29.5308 33.2136 29.2216C32.9045 28.9124 32.4873 28.7353 32.0502 28.7276C31.613 28.7199 31.1899 28.8822 30.87 29.1803L27 33.0435L23.13 29.1758C22.9742 29.0147 22.788 28.8862 22.5821 28.7978C22.3761 28.7095 22.1547 28.6631 21.9306 28.6612C21.7065 28.6594 21.4844 28.7022 21.277 28.7871C21.0697 28.8721 20.8813 28.9975 20.7229 29.156C20.5646 29.3145 20.4394 29.503 20.3546 29.7104C20.2699 29.9178 20.2273 30.1401 20.2293 30.3641C20.2314 30.5882 20.278 30.8096 20.3666 31.0154C20.4551 31.2213 20.5837 31.4074 20.745 31.563L25.8075 36.6255ZM27 20.3738C26.5226 20.3738 26.0648 20.1841 25.7272 19.8466C25.3896 19.509 25.2 19.0511 25.2 18.5738C25.2 18.0964 25.3896 17.6385 25.7272 17.301C26.0648 16.9634 26.5226 16.7738 27 16.7738C27.4774 16.7738 27.9352 16.9634 28.2728 17.301C28.6103 17.6385 28.8 18.0964 28.8 18.5738C28.8 19.0511 28.6103 19.509 28.2728 19.8466C27.9352 20.1841 27.4774 20.3738 27 20.3738ZM25.2 24.9098C25.2 25.1461 25.2465 25.3802 25.337 25.5986C25.4275 25.817 25.56 26.0154 25.7272 26.1826C25.8943 26.3497 26.0928 26.4823 26.3112 26.5727C26.5295 26.6632 26.7636 26.7098 27 26.7098C27.2364 26.7098 27.4704 26.6632 27.6888 26.5727C27.9072 26.4823 28.1056 26.3497 28.2728 26.1826C28.4399 26.0154 28.5725 25.817 28.663 25.5986C28.7534 25.3802 28.8 25.1461 28.8 24.9098C28.8 24.4324 28.6103 23.9745 28.2728 23.637C27.9352 23.2994 27.4774 23.1098 27 23.1098C26.5226 23.1098 26.0648 23.2994 25.7272 23.637C25.3896 23.9745 25.2 24.4324 25.2 24.9098Z" fill="#DBDAFF" fill-opacity="0.75"/>
<path fill-rule="evenodd" clip-rule="evenodd" d="M27 4.50225C22.5245 4.50225 18.2322 6.28015 15.0676 9.44482C11.9029 12.6095 10.125 16.9017 10.125 21.3773V32.6273C10.125 37.1028 11.9029 41.395 15.0676 44.5597C18.2322 47.7244 22.5245 49.5023 27 49.5023C31.4755 49.5023 35.7677 47.7244 38.9324 44.5597C42.0971 41.395 43.875 37.1028 43.875 32.6273V21.3773C43.875 16.9017 42.0971 12.6095 38.9324 9.44482C35.7677 6.28015 31.4755 4.50225 27 4.50225ZM13.5 21.3773C13.5 17.7968 14.9223 14.3631 17.4541 11.8313C19.9858 9.29957 23.4196 7.87725 27 7.87725C30.5804 7.87725 34.0142 9.29957 36.5459 11.8313C39.0777 14.3631 40.5 17.7968 40.5 21.3773V32.6273C40.5 36.2077 39.0777 39.6415 36.5459 42.1732C34.0142 44.7049 30.5804 46.1273 27 46.1273C23.4196 46.1273 19.9858 44.7049 17.4541 42.1732C14.9223 39.6415 13.5 36.2077 13.5 32.6273V21.3773Z" fill="#DBDAFF" fill-opacity="0.75"/>
</svg>
