<svg width="95" height="95" viewBox="0 0 95 95" fill="none" xmlns="http://www.w3.org/2000/svg">
<path d="M45.2744 21.4768C45.7494 21.4768 45.9886 21.1986 46.1091 20.7609C47.3407 14.1211 47.2626 13.9616 54.1807 12.6503C54.6557 12.5705 54.9356 12.294 54.9356 11.8156C54.9356 11.3389 54.6574 11.0607 54.179 10.981C47.3016 9.5899 47.5001 9.43043 46.1091 2.86865C45.9903 2.43266 45.7511 2.15445 45.2744 2.15445C44.7977 2.15445 44.5585 2.43266 44.4381 2.86865C43.047 9.43043 43.2845 9.5882 36.3682 10.981C35.9305 11.059 35.6116 11.3372 35.6116 11.8156C35.6116 12.2923 35.9305 12.5705 36.3665 12.6503C43.2862 14.0413 43.2065 14.1211 44.4381 20.7609C44.5568 21.1986 44.7977 21.4768 45.2744 21.4768ZM26.0301 48.8317C26.785 48.8317 27.3025 48.355 27.3822 47.6391C28.8123 37.0228 29.1702 37.0228 40.1444 34.9159C40.8603 34.7971 41.3777 34.3187 41.3777 33.5638C41.3777 32.8479 40.8603 32.3322 40.1444 32.2118C29.1702 30.702 28.7733 30.344 27.3822 19.5293C27.3025 18.8134 26.785 18.296 26.0301 18.296C25.3142 18.296 24.7968 18.8134 24.7171 19.5683C23.4058 30.2236 22.8493 30.1845 11.9549 32.2118C11.239 32.3712 10.7216 32.8479 10.7216 33.5638C10.7216 34.3594 11.239 34.7971 12.1126 34.9159C22.9291 36.6649 23.4058 36.9431 24.7171 47.5594C24.7968 48.355 25.3142 48.8317 26.0301 48.8317ZM52.9864 92.8472C54.0212 92.8472 54.7761 92.0906 54.9746 91.0168C57.7974 69.2295 60.8595 65.9283 82.4092 63.5431C83.5221 63.4244 84.2787 62.5897 84.2787 61.5549C84.2787 60.5201 83.5221 59.7261 82.4092 59.5667C60.8595 57.1815 57.7974 53.8819 54.9746 32.093C54.7761 31.0192 54.0212 30.3033 52.9864 30.3033C51.9516 30.3033 51.1983 31.0192 51.0389 32.093C48.216 53.8819 45.1149 57.1815 23.6042 59.5667C22.4507 59.7261 21.6958 60.5218 21.6958 61.5549C21.6958 62.5897 22.4507 63.4244 23.6042 63.5431C45.0742 66.366 48.0566 69.2686 51.0389 91.0168C51.1983 92.0906 51.9533 92.8472 52.9864 92.8472Z" fill="white" fill-opacity="0.15"/>
</svg>
